<?xml version="1.0" encoding="UTF-8"?>
<svg width="323px" height="100px" viewBox="0 0 323 100" version="1.1" xmlns="http://www.w3.org/2000/svg" xmlns:xlink="http://www.w3.org/1999/xlink">
    <title>Branding / Strativity Logo Light</title>
    <g id="Branding-/-Strativity-Logo-Light" stroke="none" stroke-width="1" fill="none" fill-rule="evenodd">
        <path d="M20.8479804,41.1153596 L21.2372741,41.6262087 L24.5282735,38.5589169 L24.1688829,38.1425475 C21.1154467,34.5852801 17.6239859,33 12.8455854,33 C4.67152471,33 1.77037275,37.9865462 1.77037275,42.2562559 C1.77037275,48.55508 7.10142637,50.3392067 11.8067305,51.9124022 C16.129386,53.359808 19.8611789,54.6083671 19.8611789,58.713836 C19.8611789,61.7789305 17.1649184,63.6091984 12.6512154,63.6091984 C8.95486321,63.6091984 6.14840432,62.2310045 3.82094838,59.2719249 L3.43497721,58.7803013 L0,61.9305373 L0.362713215,62.3502026 C3.53465413,66.0211751 7.40876352,67.730597 12.5559686,67.730597 C19.8717004,67.730597 24.5986011,63.9464687 24.5986011,58.0909297 C24.5986011,51.5597516 19.0648711,49.6393984 14.1834711,47.9453569 C10.0651533,46.5166274 6.50779497,45.2828994 6.50779497,41.7294771 C6.50779497,38.7583129 8.79316511,37.1230465 12.9424935,37.1230465 C16.2185415,37.1230465 18.8046036,38.4281835 20.8479804,41.1153596 M42.1466665,67.1078555 L46.7378959,67.1078555 L46.7378959,37.8405972 L58.7816359,37.8405972 L58.7816359,33.6219725 L30.0541955,33.6219725 L30.0541955,37.8405972 L42.1466665,37.8405972 L42.1466665,67.1078555 Z M77.2182656,33.6214781 C83.5106477,33.6214781 87.9069534,37.6461999 87.9069534,43.4083579 C87.9069534,49.7379429 83.4873897,51.938439 81.5879908,52.5904582 L81.5879908,52.5904582 L81.471701,52.6294586 L81.4988353,52.7481074 C82.2752077,56.1740921 84.6912654,65.0952749 90.3329787,73.8983582 C94.841144,80.7431866 100.587518,86.08513 107.414833,89.7786239 C114.020644,93.3534689 121.304257,95.2128497 129.064659,95.3051321 C142.023765,95.3051321 154.243047,89.8807937 162.608709,80.4163531 L162.608709,80.4163531 L166.841102,82.7415404 C157.526848,93.7121618 143.769772,100 129.064659,100 C111.599602,100 95.6861828,91.0804651 86.4937562,76.1395025 L86.4937562,76.1395025 L86.4201061,76.0301918 C80.3542121,66.4806097 77.7903003,57.1848042 76.9668583,53.6214945 L76.9668583,53.6214945 L76.9441541,53.5215219 L76.8095903,53.5187754 L69.9767378,53.5314093 L69.9767378,67.109009 L65.3849546,67.109009 L65.3849546,33.623126 Z M109.702141,33.6219176 L123.518469,67.1078006 L118.447683,67.1078006 L114.480542,57.1770042 L101.715805,57.1770042 L97.7985027,67.1078006 L92.7709099,67.1078006 L106.686915,33.6219176 L109.702141,33.6219176 Z M108.146074,40.197589 L103.335555,53.1028454 L112.854147,53.1028454 L108.146074,40.197589 Z M77.0731803,37.6967355 L69.9767378,37.6983834 L69.9767378,49.4577998 L76.7331713,49.4561519 C79.1924223,49.4561519 83.3146164,48.6766951 83.3146164,43.4566963 C83.3146164,40.0109368 80.8060808,37.6967355 77.0731803,37.6967355 L77.0731803,37.6967355 Z M186.085779,88.2098228 C185.675996,89.8961741 185.631141,91.4325664 185.631141,91.7330336 L184.44554,91.7330336 L184.44554,91.3721434 C184.44554,91.1013385 184.536357,90.1982891 184.946139,89.1139708 C184.401239,90.2427824 183.307562,91.86926 181.394873,91.86926 C180.39312,91.86926 179.998842,91.3875238 179.998842,90.7091382 C179.998842,89.6561299 181.015546,86.6135567 181.228744,84.6415694 L182.412131,84.6415694 C182.335712,86.4180059 181.258647,89.3391838 181.258647,90.3328677 C181.258647,90.6800253 181.440281,90.8755762 181.879967,90.8755762 C182.66963,90.8755762 183.702393,89.8511315 184.521959,88.4504162 C185.098977,87.4721128 185.599577,85.7105074 185.766813,84.6415694 L186.875442,84.6415694 C186.799576,85.363899 186.435756,86.7794454 186.085779,88.2098228 M193.70104,91.7330336 L192.516546,91.7330336 C192.592965,89.9571464 193.715991,87.0513489 193.715991,86.0571157 C193.715991,85.711606 193.533804,85.545168 193.094118,85.545168 C192.303902,85.545168 191.196934,86.5229222 190.376815,87.9241867 C189.814748,88.8871098 189.374508,90.3487974 189.130853,91.7330336 L188.023886,91.7330336 C188.038837,91.0403662 188.463572,89.5951576 188.812995,88.1647802 C189.222777,86.4784289 189.299196,84.9425858 189.299196,84.6415694 L190.452126,84.6415694 L190.452126,85.0019103 C190.452126,85.2738138 190.361309,86.1768632 189.951526,87.2606322 C190.452126,86.1466516 191.652125,84.5503856 193.442987,84.5503856 C194.627481,84.5503856 194.97635,85.0019103 194.97635,85.6797466 C194.97635,86.7338534 193.91313,89.7610463 193.70104,91.7330336 M198.613506,85.9208893 C198.022643,88.8871098 197.688172,90.6196023 197.505431,91.7330336 L196.382958,91.7330336 C196.457716,90.8014206 196.96053,88.5564312 197.476081,85.8906778 C198.142809,82.4581015 198.340502,81.2831486 198.461775,80.1993795 L199.615812,80.1993795 C199.464636,81.402896 199.114105,83.3913624 198.613506,85.9208893 M202.656955,91.8693149 C201.032775,91.8693149 200.090828,90.800377 200.090828,89.0827156 C200.090828,86.7339084 201.533929,84.520229 204.069598,84.520229 C205.677719,84.520229 206.739832,85.4249263 206.739832,87.170602 C206.739832,89.7166079 205.116206,91.8693149 202.656955,91.8693149 M203.887411,85.4699689 C202.262124,85.4699689 201.321284,87.3364906 201.321284,89.1431386 C201.321284,90.1983441 201.731067,90.9201244 202.915561,90.9201244 C204.554139,90.9201244 205.465075,88.7970795 205.465075,87.2464054 C205.465075,86.4482723 205.283442,85.4699689 203.887411,85.4699689 M213.610451,86.3430264 C213.610451,86.3430264 212.897207,85.4998508 211.819036,85.4998508 C210.163845,85.4998508 209.359231,87.3823022 209.359231,88.9324271 C209.359231,90.2727193 209.875889,90.8906819 210.892594,90.8906819 C211.940309,90.8906819 212.608144,90.1381408 212.77538,89.9568717 L213.21562,90.7088636 C213.124803,90.8445407 212.152399,91.8695347 210.634542,91.8695347 C209.223559,91.8695347 208.129328,91.0406408 208.129328,89.1136961 C208.129328,86.6440429 209.632789,84.5501109 211.985717,84.5501109 C213.5955,84.5501109 214.188024,85.4092163 214.188024,85.4092163 L213.610451,86.3430264 Z M216.979531,85.9208893 C216.387007,88.8871098 216.159411,90.0016397 215.870902,91.7330336 L214.747876,91.7330336 C214.822633,90.8014206 215.324894,88.5564312 215.840999,85.8906778 C216.507173,82.4581015 216.705973,81.2831486 216.8278,80.1993795 L217.981284,80.1993795 C217.829553,81.402896 217.48013,83.3913624 216.979531,85.9208893 L216.979531,85.9208893 Z M221.229644,85.695127 C221.229644,85.695127 221.017,85.6500844 220.72849,85.6500844 C220.242842,85.6500844 219.832506,85.9208893 219.134767,86.6135567 C218.330707,87.4116898 217.86001,87.953849 217.86001,87.953849 C217.86001,87.953849 218.147412,88.6465164 218.846258,89.6561299 C219.757194,90.9656614 220.288804,91.4023549 220.621615,91.5973565 L219.423277,91.8835418 C219.059456,91.7637944 218.63306,91.523201 217.799097,90.1982891 C217.146213,89.1595627 216.8278,88.3152884 216.569194,88.014272 C217.251981,87.3518161 217.874408,86.5833452 218.481883,85.9362697 C219.226138,85.1529678 219.98479,84.5503856 220.972145,84.5503856 C221.396326,84.5503856 221.517599,84.6860627 221.517599,84.6860627 L221.229644,85.695127 Z M226.43671,91.7330336 L226.43671,83.828056 L231.218987,83.828056 L231.218987,84.9261068 L227.651107,84.9261068 L227.651107,87.1859274 L231.082208,87.1859274 L231.082208,88.2702458 L227.651107,88.2702458 L227.651107,90.6498138 L231.523556,90.6498138 L231.523556,91.7330336 L226.43671,91.7330336 Z M239.53769,91.7330336 L237.124401,88.4663459 L234.680102,91.7330336 L233.192147,91.7330336 L236.439953,87.5330851 L233.647338,83.828056 L235.22611,83.828056 L237.199159,86.5229222 L239.21817,83.828056 L240.691174,83.828056 L237.883607,87.4572817 L241.116462,91.7330336 L239.53769,91.7330336 Z M246.454327,91.8693149 C243.858851,91.8693149 242.081833,90.167034 242.081833,87.7885646 C242.081833,85.2584883 243.797383,83.6924338 246.362956,83.6924338 C248.077953,83.6924338 248.837159,84.0533239 248.837159,84.0533239 L248.837159,85.1376423 C248.837159,85.1376423 247.911825,84.761921 246.42387,84.761921 C244.936469,84.761921 243.373202,85.4089966 243.373202,87.6677185 C243.373202,89.896229 245.042237,90.7844473 246.711825,90.7844473 C248.016485,90.7844473 248.852664,90.4383882 248.852664,90.4383882 L248.883121,91.538087 C248.883121,91.538087 248.123361,91.8693149 246.454327,91.8693149 M251.327309,91.7330336 L251.327309,83.828056 L256.11014,83.828056 L256.11014,84.9261068 L252.541707,84.9261068 L252.541707,87.1859274 L255.972807,87.1859274 L255.972807,88.2702458 L252.541707,88.2702458 L252.541707,90.6498138 L256.413601,90.6498138 L256.413601,91.7330336 L251.327309,91.7330336 Z M261.740058,88.842232 C261.041766,88.842232 260.555564,88.7065549 260.555564,88.7065549 L260.555564,87.712871 C260.555564,87.712871 260.950396,87.8485481 261.557871,87.8485481 C262.407894,87.8485481 263.152148,87.3964741 263.152148,86.3275362 C263.152148,85.3041901 262.34698,84.8065242 261.284313,84.8065242 C260.495204,84.8065242 260.146335,84.8367357 260.146335,84.8367357 L260.146335,91.7331984 L258.931938,91.7331984 L258.931938,83.8282207 C258.931938,83.8282207 260.267055,83.8128403 261.25441,83.8128403 C263.121691,83.8128403 264.472867,84.5505504 264.472867,86.237451 C264.472867,87.9238022 263.212508,88.842232 261.740058,88.842232 M270.042702,84.9123743 L270.042702,91.7330336 L268.829413,91.7330336 L268.829413,84.9123743 L265.883406,84.9123743 L265.883406,83.828056 L272.987048,83.828056 L272.987048,84.9123743 L270.042702,84.9123743 Z M274.958491,91.733473 L276.17178,91.733473 L276.17178,83.8284954 L274.958491,83.8284954 L274.958491,91.733473 Z M282.807272,91.8693149 C280.196845,91.8693149 278.739901,90.0621176 278.739901,87.7583531 C278.739901,85.589167 280.303167,83.6924338 282.988906,83.6924338 C285.692365,83.6924338 287.087842,85.4545885 287.087842,87.7731842 C287.087842,90.0769487 285.434313,91.8693149 282.807272,91.8693149 M282.929654,84.761921 C280.955497,84.761921 280.060066,86.101664 280.060066,87.7424233 C280.060066,89.4298732 280.895137,90.8146588 282.822778,90.8146588 C284.948111,90.8146588 285.752172,89.3546191 285.752172,87.7281415 C285.752172,86.3428067 284.963616,84.761921 282.929654,84.761921 M295.430246,91.7330336 L290.755399,85.8005926 L290.755399,91.7330336 L289.662275,91.7330336 L289.662275,83.828056 L290.755399,83.828056 L295.430246,89.7610463 L295.430246,83.828056 L296.52337,83.828056 L296.52337,91.7330336 L295.430246,91.7330336 Z M305.201629,91.7330336 L304.063651,88.9178706 L301.087188,88.9178706 L299.950317,91.7330336 L298.734813,91.7330336 L302.073989,83.828056 L303.199231,83.828056 L306.537854,91.7330336 L305.201629,91.7330336 Z M302.575143,85.2276726 L301.483127,87.9241867 L303.667712,87.9241867 L302.575143,85.2276726 Z M308.749131,91.7330336 L308.749131,83.828056 L309.96242,83.828056 L309.96242,90.6498138 L313.757896,90.6498138 L313.757896,91.7330336 L308.749131,91.7330336 Z M318.365825,79.1287903 L318.816633,79.1287903 C319.342576,79.1287903 319.593025,79.3291495 319.66816,79.7799577 C319.793384,80.2558108 319.868519,80.6314843 319.993744,80.7817537 L321.020584,80.7817537 C320.920405,80.6314843 320.84527,80.3810353 320.720046,79.7549128 C320.594821,79.203925 320.369417,78.9033862 319.968699,78.7531168 L319.968699,78.703027 C320.469597,78.5527576 320.820225,78.202129 320.820225,77.7513208 C320.820225,77.3506024 320.644911,77.0250187 320.419507,76.8497044 C320.118968,76.6743901 319.768339,76.5491656 318.991948,76.5491656 C318.315735,76.5491656 317.789792,76.5992554 317.414119,76.6743901 L317.414119,80.7817537 L318.365825,80.7817537 L318.365825,79.1287903 Z M318.39087,77.2754677 C318.49105,77.2504228 318.666364,77.2253779 318.916813,77.2253779 C319.51789,77.2253779 319.793384,77.4758269 319.793384,77.8515004 C319.793384,78.2772637 319.367621,78.452578 318.841678,78.452578 L318.39087,78.452578 L318.39087,77.2754677 Z M319.016992,74.5205287 C316.662772,74.5205287 314.784404,76.3488064 314.784404,78.6278923 C314.784404,80.957068 316.662772,82.7853457 319.016992,82.7853457 C321.396258,82.7853457 323.224536,80.957068 323.224536,78.6278923 C323.224536,76.3488064 321.396258,74.5205287 319.016992,74.5205287 Z M319.016992,75.3470104 C320.84527,75.3470104 322.17265,76.8246595 322.17265,78.6529372 C322.17265,80.45617 320.84527,81.9087742 319.042037,81.9087742 C317.188715,81.9087742 315.83629,80.45617 315.83629,78.6278923 C315.83629,76.8246595 317.188715,75.3470104 319.016992,75.3470104 Z" id="Combined-Shape" fill="#00ABD7"></path>
        <path d="M210.037988,66.9999446 L214.61859,66.9999446 L214.61859,33.2005174 L210.037988,33.2005174 L210.037988,66.9999446 Z M234.586541,67 L239.16659,67 L239.16659,37.4586985 L251.188458,37.4586985 L251.188458,33.2005728 L222.516037,33.2005728 L222.516037,37.4586985 L234.586541,37.4586985 L234.586541,67 Z M278.474871,33.200351 L270.220061,46.8208088 L261.968567,33.200351 L256.353904,33.200351 L267.808171,51.3506118 L267.808171,66.9997782 L272.392641,66.9997782 L272.392641,51.353384 L272.418617,51.3173452 L284,33.200351 L278.474871,33.200351 Z M151.442933,33.2005728 L151.442933,37.4586985 L139.423275,37.4586985 L139.423275,67 L134.840463,67 L134.840463,37.4586985 L122.77217,37.4586985 L122.77217,33.2005728 L151.442933,33.2005728 Z M163.736221,33.2005174 L163.736221,66.9999446 L159.153409,66.9999446 L159.153409,33.2005174 L163.736221,33.2005174 Z M129.222649,0 C146.659664,0 163.78552,8.97477613 173.659678,26.8128853 C178.511275,34.7488672 186.952046,58.5692677 187.120376,59.0448821 L187.122933,59.0521086 L196.215603,33.6785585 L201.592615,33.6785585 L189.053992,66.7799414 L185.33557,66.7799414 C184.720991,65.1393432 174.083583,34.7175855 168.142839,26.8128853 C164.457025,20.1756427 151.696778,4.84805353 129.222649,4.73993706 C114.416347,4.73993706 100.733266,11.7980567 92.4800873,23.6556212 L92.1876468,24.0811424 L88,21.7691132 C97.0910127,8.13479431 112.48809,0 129.222649,0 Z" id="Combined-Shape" fill="#FFFFFF"></path>
    </g>
</svg>